<?xml version="1.0" standalone="no"?>
<!DOCTYPE svg PUBLIC "-//W3C//DTD SVG 20010904//EN"
 "http://www.w3.org/TR/2001/REC-SVG-20010904/DTD/svg10.dtd">
<svg version="1.0" xmlns="http://www.w3.org/2000/svg"
 width="500.000000pt" height="500.000000pt" viewBox="0 0 500.000000 500.000000"
 preserveAspectRatio="xMidYMid meet">

<g transform="translate(0.000000,500.000000) scale(0.100000,-0.100000)"
fill="#000000" stroke="none">
<path d="M0 2500 l0 -2500 395 0 395 0 0 590 c0 325 2 590 4 590 3 0 365 -265
805 -590 l800 -590 662 0 661 0 -1283 946 c-706 520 -1284 949 -1284 954 0 5
315 241 699 525 l700 515 830 -2 831 -3 3 -1467 2 -1468 390 0 390 0 0 2500 0
2500 -2500 0 -2500 0 0 -2500z m4218 1508 l-3 -203 -910 -3 -910 -2 -800 -590
c-440 -325 -801 -590 -802 -590 -2 0 -3 358 -3 795 l0 795 1715 0 1715 0 -2
-202z"/>
<path d="M3040 2265 c-178 -44 -310 -160 -377 -332 -37 -94 -39 -256 -5 -353
57 -166 198 -297 366 -340 192 -49 363 -2 503 136 169 167 208 397 103 610
-106 216 -359 336 -590 279z"/>
</g>
</svg>
