<?xml version="1.0" standalone="no"?>
<!DOCTYPE svg PUBLIC "-//W3C//DTD SVG 20010904//EN"
 "http://www.w3.org/TR/2001/REC-SVG-20010904/DTD/svg10.dtd">
<svg version="1.0" xmlns="http://www.w3.org/2000/svg"
 width="500.000000pt" height="500.000000pt" viewBox="0 0 500.000000 500.000000"
 preserveAspectRatio="xMidYMid meet">

<g transform="translate(0.000000,500.000000) scale(0.100000,-0.100000)"
fill="#000000" stroke="none">
<path d="M790 3415 c0 -437 1 -795 3 -795 1 0 362 265 802 590 l800 590 910 2
910 3 3 203 2 202 -1715 0 -1715 0 0 -795z"/>
<path d="M1854 2425 c-384 -284 -699 -520 -699 -525 0 -5 578 -434 1284 -954
l1283 -946 249 0 249 0 -2 1467 -3 1468 -831 3 -830 2 -700 -515z m1424 -160
c267 -63 445 -324 404 -592 -18 -118 -67 -210 -155 -297 -140 -138 -311 -185
-503 -136 -168 43 -309 174 -366 340 -34 97 -32 259 5 353 99 253 357 393 615
332z"/>
<path d="M790 590 l0 -590 802 0 c483 0 798 4 793 9 -16 15 -1586 1171 -1591
1171 -2 0 -4 -265 -4 -590z"/>
</g>
</svg>
